<svg width="859" height="324" viewBox="0 0 859 324" fill="none" xmlns="http://www.w3.org/2000/svg">
<g clip-path="url(#clip0_5_2)">
<path fill-rule="evenodd" clip-rule="evenodd" d="M708.259 295.724C708.099 292.901 707.215 290.506 705.605 288.538C703.995 286.57 701.818 285.587 699.074 285.587C697.087 285.587 695.308 286.064 693.737 287.017C692.167 287.971 690.785 289.323 689.593 291.073C688.241 293.061 687.168 295.575 686.372 298.616C685.577 301.658 685.18 304.47 685.18 307.054C685.18 308.764 685.408 310.374 685.865 311.885C686.322 313.395 687.008 314.688 687.922 315.761C688.757 316.835 689.721 317.62 690.815 318.116C691.909 318.614 693.131 318.863 694.482 318.863C696.868 318.863 699.065 318.107 701.073 316.596C703.079 315.086 704.66 312.74 705.814 309.559L709.988 311.169C709.59 312.243 709.113 313.296 708.556 314.33C708 315.363 707.383 316.297 706.708 317.133C705.117 319.161 703.288 320.682 701.222 321.695C699.153 322.708 696.828 323.235 694.244 323.276C691.54 323.235 689.244 322.679 687.357 321.605C685.468 320.532 683.888 318.962 682.616 316.894C681.581 315.304 680.836 313.595 680.379 311.766C679.922 309.937 679.692 307.889 679.692 305.624C679.692 302.563 680.17 299.472 681.124 296.35C682.078 293.229 683.53 290.436 685.478 287.971C687.307 285.625 689.324 283.906 691.531 282.813C693.737 281.72 696.231 281.173 699.015 281.173C701.321 281.173 703.368 281.58 705.157 282.395C706.946 283.21 708.457 284.353 709.689 285.825C710.604 286.978 711.33 288.329 711.866 289.88C712.403 291.431 712.711 293.02 712.79 294.65L708.259 295.724ZM639.017 285.735C638.877 285.715 638.668 285.706 638.39 285.706C637.833 285.706 637.337 285.814 636.899 286.033C636.462 286.251 636.064 286.58 635.706 287.017C635.507 287.255 635.329 287.494 635.17 287.733C635.01 287.971 634.315 289.403 633.083 292.027L632.069 294.173C631.473 295.445 630.906 296.48 630.37 297.275C629.832 298.07 629.346 298.686 628.909 299.123C628.431 299.6 627.934 299.968 627.417 300.226C626.901 300.485 626.363 300.654 625.807 300.733V300.912C627.516 301.309 628.848 302.185 629.803 303.536C630.757 304.888 631.473 307.015 631.95 309.917L632.248 311.885C632.526 313.913 632.725 315.225 632.844 315.822C632.963 316.417 633.103 316.855 633.261 317.133C633.42 317.571 633.659 317.898 633.977 318.116C634.296 318.336 634.753 318.425 635.349 318.386C635.588 318.386 635.786 318.386 635.944 318.386C636.104 318.386 636.263 318.366 636.422 318.325L635.766 322.321C635.329 322.52 634.861 322.67 634.364 322.769C633.868 322.868 633.4 322.918 632.963 322.918C632.207 322.918 631.542 322.789 630.965 322.53C630.389 322.271 629.922 321.904 629.564 321.427C629.087 320.91 628.7 320.115 628.401 319.041C628.103 317.968 627.775 316.218 627.417 313.794L626.82 309.917C626.582 308.446 626.294 307.342 625.956 306.608C625.618 305.872 625.211 305.266 624.733 304.789C624.177 304.351 623.52 304.024 622.766 303.805C622.01 303.585 620.758 303.457 619.009 303.417H613.383L610.242 322.679H605.114L611.793 281.769H616.922L614.069 299.242H619.128C620.679 299.283 621.94 299.073 622.915 298.616C623.889 298.159 624.774 297.414 625.568 296.379C626.005 295.784 626.512 294.958 627.09 293.905C627.666 292.851 628.391 291.411 629.265 289.581L630.22 287.554C630.816 286.282 631.453 285.208 632.128 284.333C632.804 283.459 633.52 282.803 634.275 282.366C634.753 282.127 635.309 281.929 635.944 281.769C636.581 281.611 637.277 281.531 638.033 281.531C638.35 281.531 638.679 281.551 639.017 281.591C639.354 281.63 639.722 281.69 640.12 281.769L639.463 285.825C639.305 285.785 639.156 285.755 639.017 285.735ZM545.324 286.183L543.197 299.183H559.696L558.98 303.357H542.511L540.077 318.267H561.426L560.711 322.679H534.233L540.971 281.769H566.852L566.077 286.183H545.324ZM481.718 322.679L487.682 286.183H475.397C473.806 293.457 472.991 297.155 472.952 297.275C472.912 297.394 472.872 297.592 472.833 297.871C471.004 305.186 469.572 310.066 468.538 312.511C467.505 314.956 466.213 316.954 464.662 318.505C463.311 319.856 461.85 320.88 460.279 321.576C458.709 322.271 457.208 322.639 455.777 322.679C455.657 322.679 455.538 322.679 455.419 322.679C455.299 322.679 455.16 322.679 455.002 322.679L455.777 317.848C455.857 317.888 455.916 317.909 455.956 317.909C455.995 317.909 456.015 317.888 456.015 317.848C456.731 317.848 457.417 317.74 458.073 317.521C458.729 317.302 459.394 316.954 460.071 316.477C461.661 315.363 463.003 313.645 464.096 311.318C465.189 308.992 466.571 304.332 468.241 297.334C469.115 293.637 469.711 290.884 470.03 289.074C470.348 287.266 470.686 285.566 471.044 283.975L471.521 281.769H493.585L486.847 322.679H481.718ZM407.198 322.679L413.161 286.183H394.675L388.711 322.679H383.583L390.321 281.769H419.066L412.326 322.679H407.198ZM331.068 322.679L336.913 286.958L336.733 286.898L317.829 322.679H314.37L306.797 287.017L306.737 286.958L300.893 322.679H296.6L303.338 281.769H310.613L317.531 314.509L317.65 314.629L335.183 281.769H342.935L336.197 322.679H331.068ZM249.392 316.894C247.683 319.041 245.734 320.642 243.548 321.695C241.362 322.749 238.857 323.276 236.034 323.276C233.49 323.276 231.273 322.857 229.384 322.023C227.497 321.189 225.935 319.995 224.704 318.445C223.351 316.894 222.367 315.086 221.752 313.018C221.135 310.951 220.827 308.684 220.827 306.219C220.827 302.601 221.334 299.123 222.348 295.784C223.362 292.444 224.723 289.7 226.433 287.554C228.063 285.447 229.971 283.867 232.157 282.813C234.345 281.76 237.067 281.213 240.328 281.173C241.958 281.173 243.399 281.362 244.651 281.74C245.903 282.118 247.127 282.704 248.318 283.498C250.466 285.01 252.116 286.987 253.268 289.432C254.421 291.877 254.998 294.79 254.998 298.169C254.998 301.588 254.511 304.997 253.537 308.396C252.563 311.795 251.181 314.629 249.392 316.894ZM248.944 293.457C248.568 291.987 247.981 290.655 247.186 289.463C246.231 288.07 245.138 287.077 243.906 286.481C242.674 285.884 241.182 285.587 239.433 285.587C237.524 285.587 235.855 286.003 234.424 286.839C232.993 287.673 231.68 288.966 230.488 290.715C229.176 292.624 228.152 294.949 227.416 297.692C226.682 300.435 226.313 303.218 226.313 306.041C226.313 307.869 226.493 309.53 226.851 311.02C227.209 312.511 227.804 313.834 228.639 314.986C229.474 316.297 230.458 317.272 231.592 317.909C232.724 318.544 234.185 318.863 235.975 318.863C238.042 318.863 239.831 318.445 241.342 317.61C242.852 316.775 244.185 315.483 245.337 313.733C246.569 311.865 247.573 309.51 248.349 306.667C249.124 303.824 249.511 301.131 249.511 298.587C249.511 296.638 249.322 294.929 248.944 293.457ZM180.091 285.735C179.951 285.715 179.742 285.706 179.465 285.706C178.907 285.706 178.411 285.814 177.973 286.033C177.536 286.251 177.138 286.58 176.78 287.017C176.582 287.255 176.403 287.494 176.244 287.733C176.085 287.971 175.389 289.403 174.157 292.027L173.144 294.173C172.547 295.445 171.98 296.48 171.444 297.275C170.907 298.07 170.42 298.686 169.983 299.123C169.506 299.6 169.009 299.968 168.491 300.226C167.975 300.485 167.438 300.654 166.881 300.733V300.912C168.59 301.309 169.923 302.185 170.877 303.536C171.831 304.888 172.547 307.015 173.024 309.917L173.322 311.885C173.601 313.913 173.799 315.225 173.918 315.822C174.038 316.417 174.177 316.855 174.335 317.133C174.495 317.571 174.733 317.898 175.051 318.116C175.37 318.336 175.827 318.425 176.424 318.386C176.662 318.386 176.861 318.386 177.019 318.386C177.178 318.386 177.338 318.366 177.496 318.325L176.84 322.321C176.403 322.52 175.936 322.67 175.439 322.769C174.942 322.868 174.475 322.918 174.038 322.918C173.282 322.918 172.617 322.789 172.039 322.53C171.463 322.271 170.996 321.904 170.639 321.427C170.161 320.91 169.774 320.115 169.475 319.041C169.177 317.968 168.849 316.218 168.491 313.794L167.895 309.917C167.656 308.446 167.368 307.342 167.03 306.608C166.692 305.872 166.285 305.266 165.808 304.789C165.252 304.351 164.595 304.024 163.84 303.805C163.084 303.585 161.832 303.457 160.083 303.417H154.457L151.317 322.679H146.188L152.868 281.769H157.996L155.144 299.242H160.202C161.753 299.283 163.014 299.073 163.989 298.616C164.963 298.159 165.848 297.414 166.643 296.379C167.08 295.784 167.587 294.958 168.164 293.905C168.741 292.851 169.466 291.411 170.34 289.581L171.294 287.554C171.89 286.282 172.527 285.208 173.203 284.333C173.878 283.459 174.594 282.803 175.35 282.366C175.827 282.127 176.383 281.929 177.019 281.769C177.655 281.611 178.351 281.531 179.107 281.531C179.425 281.531 179.753 281.551 180.091 281.591C180.429 281.63 180.796 281.69 181.194 281.769L180.537 285.825C180.379 285.785 180.23 285.755 180.091 285.735Z" fill="white"/>
<path fill-rule="evenodd" clip-rule="evenodd" d="M308.849 93.809L381.021 70.956C416.637 59.676 425.905 33.228 432.607 0.375999H431.707C422.911 12.659 410.404 17.97 394.649 23.444L355.41 37.082C329.941 45.929 310.801 68.241 308.849 93.809Z" fill="white"/>
<path fill-rule="evenodd" clip-rule="evenodd" d="M858.936 224.136L843.996 242.395C826.015 241.288 808.585 235.756 811.905 213.621L818.823 169.91C810.246 174.06 800.564 176.272 791.156 178.488C777.324 181.53 761.829 184.572 759.065 201.449C756.575 218.601 770.959 224.136 785.624 224.136C792.264 224.136 799.456 222.198 806.373 220.261L786.728 241.011C781.749 241.84 776.769 242.395 772.067 242.395C744.125 242.395 727.526 224.688 731.12 201.727C739.42 150.269 818.267 174.06 822.973 143.903C825.185 130.623 809.415 126.199 799.178 126.199C785.069 126.199 773.175 131.454 759.895 137.264L782.857 109.6L801.115 107.94C830.995 107.94 852.296 116.514 847.316 149.991L840.677 191.489C837.357 213.347 836.526 221.646 858.936 224.136ZM715.143 142.244L704.628 208.367C702.694 221.09 699.374 231.05 710.438 237.968V238.798H664.237V237.968C677.517 231.05 677.517 221.09 679.454 208.367L684.156 179.04H621.356L616.651 208.367C614.717 221.09 611.397 231.05 622.461 237.968V238.798H576.26V237.968C589.54 231.05 589.54 221.09 591.752 208.089L601.99 141.969C604.202 129.519 607.247 119.282 596.18 112.365L596.457 111.534H642.658L642.38 112.365C629.101 119.282 629.379 129.519 627.166 141.969L624.399 160.781H687.199L689.967 141.969C692.179 129.242 695.224 119.282 684.156 112.365L684.434 111.534H730.635L730.361 112.365C717.081 119.282 717.356 129.519 715.143 142.244ZM563.357 136.433L550.904 213.621C549.522 223.306 548.139 231.88 557.544 237.968V238.798H509.683V237.968C521.581 231.88 524.071 224.411 525.73 213.621L536.795 143.628L469.567 223.029C459.055 234.096 446.883 240.458 432.218 244.885L449.373 136.433C451.033 125.644 452.137 118.174 442.455 112.365L442.733 111.534H488.656L488.382 112.365C477.036 118.174 476.207 125.644 474.546 136.433L463.757 204.216L538.18 116.514C539.84 115.132 540.67 114.024 542.052 111.812V111.534H577.741L577.467 112.365C566.121 118.174 564.462 129.519 563.357 136.433ZM336.75 243.592C296.268 243.592 282.457 204.305 289.905 167.791C291.061 162.125 292.783 156.629 295.008 151.392C294.762 152.368 294.534 153.351 294.332 154.341C288.652 182.185 299.183 212.142 330.053 212.142C357.894 212.142 381.343 190.656 386.9 163.421C392.888 134.066 383.077 105.014 350.697 105.014C349.5 105.014 348.313 105.056 347.137 105.135C352.485 103.81 358.066 103.105 363.822 103.105C406.285 103.105 419.151 141.203 411.297 179.699C404.011 215.415 373.259 243.592 336.75 243.592ZM319.067 153.088C307.488 151.614 304.968 139.873 308.428 129.701C311.813 119.75 321.369 112.546 331.926 113.89C344.073 115.436 346.365 126.802 342.717 137.527C339.332 147.478 329.511 154.417 319.067 153.088ZM259.394 142.244L248.882 208.367C246.945 221.09 243.624 231.05 254.692 237.968V238.798H208.488V237.968C221.768 231.05 221.768 221.09 223.705 208.367L236.433 128.964L217.896 127.304C204.894 126.199 192.445 132.839 190.229 146.393C187.739 161.333 204.616 168.802 219.278 170.463L223.983 171.018C201.574 199.511 181.929 221.09 173.077 228.838C164.225 236.308 157.03 240.458 145.41 239.905L123.831 238.798V237.968C132.686 234.926 148.178 223.029 162.01 208.367L190.784 178.21C176.397 173.508 162.01 162.441 164.778 144.181C168.375 122.324 185.526 111.534 212.638 111.534H274.886L274.611 112.365C261.332 119.282 261.606 129.519 259.394 142.244ZM83.04 157.183C76.122 157.183 69.204 156.353 63.395 153.31C87.464 151.928 115.408 137.264 119.558 110.704C123.431 86.358 107.939 76.676 85.804 76.676C79.164 76.676 72.525 77.228 66.163 78.335L46.243 203.109C44.031 218.601 41.815 229.668 55.095 237.968V238.798H0.0430298V237.968C14.982 232.988 16.642 212.517 18.576 200.067L35.176 95.765C37.113 83.315 42.093 63.118 29.091 57.586V56.756H96.319C132.282 56.756 156.907 74.186 151.928 105.172C146.948 136.989 114.301 157.183 83.04 157.183Z" fill="white"/>
</g>
<defs>
<clipPath id="clip0_5_2">
<rect width="859" height="324" fill="white"/>
</clipPath>
</defs>
</svg>
